HIERARCHY
ROOT newVegas:Hips
{
	OFFSET 0.000000 96.479958 0.000000
	CHANNELS 6 Xposition Yposition Zposition Xrotation Yrotation Zrotation
	JOINT newVegas:Pelvis
	{
		OFFSET 0.000000 0.000000 0.000000
		CHANNELS 3 Xrotation Yrotation Zrotation
		JOINT newVegas:LeftUpLeg
		{
			OFFSET 18.735201 -5.666702 -4.541200
			CHANNELS 3 Xrotation Yrotation Zrotation
			JOINT newVegas:LeftLeg
			{
				OFFSET -0.021200 -31.938179 0.493100
				CHANNELS 3 Xrotation Yrotation Zrotation
				JOINT newVegas:LeftFoot
				{
					OFFSET 0.021200 -31.938179 -4.336299
					CHANNELS 3 Xrotation Yrotation Zrotation
					JOINT newVegas:LeftToeBase
					{
						OFFSET 0.943001 -26.722000 15.023500
						CHANNELS 3 Xrotation Yrotation Zrotation
						End Site
						{
							OFFSET 0.000000 30.670183 0.000000
						}
					}
				}
				JOINT newVegas:Left_PantLeg
				{
					OFFSET 0.663870 -9.044666 -1.108900
					CHANNELS 3 Xrotation Yrotation Zrotation
					End Site
					{
						OFFSET 1.415995 20.635357 0.000000
					}
				}
			}
		}
		JOINT newVegas:RightUpLeg
		{
			OFFSET -18.735201 -5.666702 -4.541200
			CHANNELS 3 Xrotation Yrotation Zrotation
			JOINT newVegas:RightLeg
			{
				OFFSET 0.018946 -31.938133 0.493100
				CHANNELS 3 Xrotation Yrotation Zrotation
				JOINT newVegas:RightFoot
				{
					OFFSET -0.018946 -31.938126 -4.336299
					CHANNELS 3 Xrotation Yrotation Zrotation
					JOINT newVegas:RightToeBase
					{
						OFFSET -0.943001 -26.722004 15.023500
						CHANNELS 3 Xrotation Yrotation Zrotation
						End Site
						{
							OFFSET 0.000000 30.670187 0.000000
						}
					}
				}
				JOINT newVegas:Right_PantLeg
				{
					OFFSET -0.661674 -9.044716 -1.108900
					CHANNELS 3 Xrotation Yrotation Zrotation
					End Site
					{
						OFFSET -1.415958 20.635269 0.000000
					}
				}
			}
		}
	}
	JOINT newVegas:Spine
	{
		OFFSET 0.000000 10.199997 -0.299500
		CHANNELS 3 Xrotation Yrotation Zrotation
		JOINT newVegas:Spine1
		{
			OFFSET 0.000000 11.900002 -1.516600
			CHANNELS 3 Xrotation Yrotation Zrotation
			JOINT newVegas:Spine2
			{
				OFFSET 0.000000 13.600006 -2.842500
				CHANNELS 3 Xrotation Yrotation Zrotation
				JOINT newVegas:Neck
				{
					OFFSET 0.000000 9.624100 -2.890100
					CHANNELS 3 Xrotation Yrotation Zrotation
					JOINT newVegas:Head
					{
						OFFSET 0.000000 14.068802 -1.351900
						CHANNELS 3 Xrotation Yrotation Zrotation
						JOINT newVegas:Hair_Back
						{
							OFFSET 0.000000 3.231903 -17.524799
							CHANNELS 3 Xrotation Yrotation Zrotation
							End Site
							{
								OFFSET 0.000000 19.849884 0.000000
							}
						}
						JOINT newVegas:Hair_Front
						{
							OFFSET 0.000000 31.260406 4.573800
							CHANNELS 3 Xrotation Yrotation Zrotation
							JOINT newVegas:Hair_Front1
							{
								OFFSET 0.000000 2.284103 11.993300
								CHANNELS 3 Xrotation Yrotation Zrotation
								JOINT newVegas:Hair_Front2
								{
									OFFSET 0.000000 2.284103 11.993300
									CHANNELS 3 Xrotation Yrotation Zrotation
									End Site
									{
										OFFSET 0.000000 12.208862 0.000000
									}
								}
							}
						}
						JOINT newVegas:Jowel
						{
							OFFSET 0.000000 -7.458206 6.864100
							CHANNELS 3 Xrotation Yrotation Zrotation
							End Site
							{
								OFFSET 0.000000 19.849884 0.000000
							}
						}
					}
				}
				JOINT newVegas:LeftShoulder
				{
					OFFSET 15.263000 10.923401 -0.547700
					CHANNELS 3 Xrotation Yrotation Zrotation
					JOINT newVegas:LeftArm
					{
						OFFSET 25.438599 -2.830597 -13.032500
						CHANNELS 3 Xrotation Yrotation Zrotation
						JOINT newVegas:LeftForeArm
						{
							OFFSET 29.960503 0.000000 0.000000
							CHANNELS 3 Xrotation Yrotation Zrotation
							JOINT newVegas:LeftHand
							{
								OFFSET 27.849251 0.000000 0.000000
								CHANNELS 3 Xrotation Yrotation Zrotation
								JOINT newVegas:LeftHandThumb1
								{
									OFFSET 4.487587 -3.305161 6.305391
									CHANNELS 3 Xrotation Yrotation Zrotation
									JOINT newVegas:LeftHandThumb2
									{
										OFFSET 5.480453 -3.164139 3.164143
										CHANNELS 3 Xrotation Yrotation Zrotation
										JOINT newVegas:LeftHandThumb3
										{
											OFFSET 5.159721 -2.978973 2.978967
											CHANNELS 3 Xrotation Yrotation Zrotation
											End Site
											{
												OFFSET 2.494507 5.926697 1.738678
											}
										}
									}
								}
								JOINT newVegas:LeftHandIndex1
								{
									OFFSET 18.578728 -0.527832 5.208049
									CHANNELS 3 Xrotation Yrotation Zrotation
									JOINT newVegas:LeftHandIndex2
									{
										OFFSET 3.192009 0.000000 0.000000
										CHANNELS 3 Xrotation Yrotation Zrotation
										JOINT newVegas:LeftHandIndex3
										{
											OFFSET 3.835129 0.000000 0.000000
											CHANNELS 3 Xrotation Yrotation Zrotation
											End Site
											{
												OFFSET -0.034599 3.816971 0.371180
											}
										}
									}
								}
								JOINT newVegas:LeftHandMiddle1
								{
									OFFSET 18.476105 0.000000 0.000000
									CHANNELS 3 Xrotation Yrotation Zrotation
									JOINT newVegas:LeftHandMiddle2
									{
										OFFSET 3.324875 0.000000 0.000000
										CHANNELS 3 Xrotation Yrotation Zrotation
										JOINT newVegas:LeftHandMiddle3
										{
											OFFSET 4.596550 0.000000 0.000000
											CHANNELS 3 Xrotation Yrotation Zrotation
											End Site
											{
												OFFSET 0.057701 4.578827 0.399218
											}
										}
									}
								}
								JOINT newVegas:LeftHandRing1
								{
									OFFSET 17.732719 0.121887 -4.201567
									CHANNELS 3 Xrotation Yrotation Zrotation
									JOINT newVegas:LeftHandRing2
									{
										OFFSET 2.733170 0.000000 0.000000
										CHANNELS 3 Xrotation Yrotation Zrotation
										JOINT newVegas:LeftHandRing3
										{
											OFFSET 3.178268 0.000000 0.000000
											CHANNELS 3 Xrotation Yrotation Zrotation
											End Site
											{
												OFFSET 0.119102 3.170624 0.185394
											}
										}
									}
								}
								JOINT newVegas:LeftHandPinky1
								{
									OFFSET 15.989624 -0.606689 -7.535461
									CHANNELS 3 Xrotation Yrotation Zrotation
									JOINT newVegas:LeftHandPinky2
									{
										OFFSET 2.538986 0.000000 0.000000
										CHANNELS 3 Xrotation Yrotation Zrotation
										JOINT newVegas:LeftHandPinky3
										{
											OFFSET 2.593102 0.000000 0.000000
											CHANNELS 3 Xrotation Yrotation Zrotation
											End Site
											{
												OFFSET -0.150902 2.584198 0.152708
											}
										}
									}
								}
							}
							JOINT newVegas:Left_Sleeve
							{
								OFFSET 0.267448 -0.649796 0.577675
								CHANNELS 3 Xrotation Yrotation Zrotation
								End Site
								{
									OFFSET 0.000000 15.991241 0.000000
								}
							}
							JOINT newVegas:Left_CapeC
							{
								OFFSET 15.715958 -8.608795 -6.935905
								CHANNELS 3 Xrotation Yrotation Zrotation
								JOINT newVegas:Left_CapeC1
								{
									OFFSET 0.000000 -8.688499 0.000000
									CHANNELS 3 Xrotation Yrotation Zrotation
									End Site
									{
										OFFSET 0.000000 8.688499 0.000000
									}
								}
							}
						}
						JOINT newVegas:Left_CapeB
						{
							OFFSET 26.118385 -8.608795 -7.079235
							CHANNELS 3 Xrotation Yrotation Zrotation
							JOINT newVegas:Left_CapeB1
							{
								OFFSET 0.000000 -8.688499 0.000000
								CHANNELS 3 Xrotation Yrotation Zrotation
								End Site
								{
									OFFSET 0.000000 8.688499 0.000000
								}
							}
						}
						JOINT newVegas:Left_CapeA
						{
							OFFSET 5.115639 -8.608795 -10.395809
							CHANNELS 3 Xrotation Yrotation Zrotation
							JOINT newVegas:Left_CapeA1
							{
								OFFSET 0.000000 -8.688499 0.000000
								CHANNELS 3 Xrotation Yrotation Zrotation
								End Site
								{
									OFFSET 0.000000 8.688499 0.000000
								}
							}
						}
					}
				}
				JOINT newVegas:RightShoulder
				{
					OFFSET -15.263000 10.923401 -0.547700
					CHANNELS 3 Xrotation Yrotation Zrotation
					JOINT newVegas:RightArm
					{
						OFFSET -25.438599 -2.830597 -13.032500
						CHANNELS 3 Xrotation Yrotation Zrotation
						JOINT newVegas:RightForeArm
						{
							OFFSET -29.960503 0.000000 0.000000
							CHANNELS 3 Xrotation Yrotation Zrotation
							JOINT newVegas:RightHand
							{
								OFFSET -27.849251 0.000000 0.000000
								CHANNELS 3 Xrotation Yrotation Zrotation
								JOINT newVegas:RightHandThumb1
								{
									OFFSET -4.487587 -3.305161 6.305391
									CHANNELS 3 Xrotation Yrotation Zrotation
									JOINT newVegas:RightHandThumb2
									{
										OFFSET -5.480453 -3.164139 3.164143
										CHANNELS 3 Xrotation Yrotation Zrotation
										JOINT newVegas:RightHandThumb3
										{
											OFFSET -5.159721 -2.978973 2.978967
											CHANNELS 3 Xrotation Yrotation Zrotation
											End Site
											{
												OFFSET -2.494507 5.926697 1.738678
											}
										}
									}
								}
								JOINT newVegas:RightHandIndex1
								{
									OFFSET -18.578728 -0.527832 5.208049
									CHANNELS 3 Xrotation Yrotation Zrotation
									JOINT newVegas:RightHandIndex2
									{
										OFFSET -3.192009 0.000000 0.000000
										CHANNELS 3 Xrotation Yrotation Zrotation
										JOINT newVegas:RightHandIndex3
										{
											OFFSET -3.835129 0.000000 0.000000
											CHANNELS 3 Xrotation Yrotation Zrotation
											End Site
											{
												OFFSET 0.034599 3.816971 0.371180
											}
										}
									}
								}
								JOINT newVegas:RightHandMiddle1
								{
									OFFSET -18.476105 0.000000 0.000000
									CHANNELS 3 Xrotation Yrotation Zrotation
									JOINT newVegas:RightHandMiddle2
									{
										OFFSET -3.324875 0.000000 0.000000
										CHANNELS 3 Xrotation Yrotation Zrotation
										JOINT newVegas:RightHandMiddle3
										{
											OFFSET -4.596550 0.000000 0.000000
											CHANNELS 3 Xrotation Yrotation Zrotation
											End Site
											{
												OFFSET -0.057701 4.578827 0.399218
											}
										}
									}
								}
								JOINT newVegas:RightHandRing1
								{
									OFFSET -17.732719 0.121887 -4.201567
									CHANNELS 3 Xrotation Yrotation Zrotation
									JOINT newVegas:RightHandRing2
									{
										OFFSET -2.733170 0.000000 0.000000
										CHANNELS 3 Xrotation Yrotation Zrotation
										JOINT newVegas:RightHandRing3
										{
											OFFSET -3.178268 0.000000 0.000000
											CHANNELS 3 Xrotation Yrotation Zrotation
											End Site
											{
												OFFSET -0.119102 3.170624 0.185394
											}
										}
									}
								}
								JOINT newVegas:RightHandPinky1
								{
									OFFSET -15.989624 -0.606689 -7.535461
									CHANNELS 3 Xrotation Yrotation Zrotation
									JOINT newVegas:RightHandPinky2
									{
										OFFSET -2.538986 0.000000 0.000000
										CHANNELS 3 Xrotation Yrotation Zrotation
										JOINT newVegas:RightHandPinky3
										{
											OFFSET -2.593102 0.000000 0.000000
											CHANNELS 3 Xrotation Yrotation Zrotation
											End Site
											{
												OFFSET 0.150902 2.584198 0.152708
											}
										}
									}
								}
							}
							JOINT newVegas:Right_CapeC
							{
								OFFSET -15.715958 -8.608795 -6.935905
								CHANNELS 3 Xrotation Yrotation Zrotation
								JOINT newVegas:Right_CapeC1
								{
									OFFSET 0.000000 -8.688499 0.000000
									CHANNELS 3 Xrotation Yrotation Zrotation
									End Site
									{
										OFFSET 0.000000 8.688499 0.000000
									}
								}
							}
							JOINT newVegas:Right_Sleeve
							{
								OFFSET -0.267448 -0.649994 0.577675
								CHANNELS 3 Xrotation Yrotation Zrotation
								End Site
								{
									OFFSET 0.000000 15.991302 0.000000
								}
							}
						}
						JOINT newVegas:Right_CapeA
						{
							OFFSET -5.115540 -8.608795 -10.395824
							CHANNELS 3 Xrotation Yrotation Zrotation
							JOINT newVegas:Right_CapeA1
							{
								OFFSET 0.000000 -8.688499 0.000000
								CHANNELS 3 Xrotation Yrotation Zrotation
								End Site
								{
									OFFSET 0.000000 8.688499 0.000000
								}
							}
						}
						JOINT newVegas:Right_CapeB
						{
							OFFSET -26.118187 -8.608795 -7.079266
							CHANNELS 3 Xrotation Yrotation Zrotation
							JOINT newVegas:Right_CapeB1
							{
								OFFSET 0.000000 -8.688499 0.000000
								CHANNELS 3 Xrotation Yrotation Zrotation
								End Site
								{
									OFFSET 0.000000 8.688499 0.000000
								}
							}
						}
					}
				}
				JOINT newVegas:Left_Collar
				{
					OFFSET 18.625099 8.655502 8.828100
					CHANNELS 3 Xrotation Yrotation Zrotation
					JOINT newVegas:Left_Collar1
					{
						OFFSET 14.783401 10.540405 -1.259500
						CHANNELS 3 Xrotation Yrotation Zrotation
						End Site
						{
							OFFSET 0.000000 18.199875 0.000000
						}
					}
				}
				JOINT newVegas:Collar_Back
				{
					OFFSET 0.000000 15.630707 -20.132601
					CHANNELS 3 Xrotation Yrotation Zrotation
					End Site
					{
						OFFSET 0.000000 22.523010 0.000000
					}
				}
				JOINT newVegas:Left_Peck
				{
					OFFSET 17.239599 -5.132599 25.482599
					CHANNELS 3 Xrotation Yrotation Zrotation
					End Site
					{
						OFFSET 0.000000 22.523010 0.000000
					}
				}
				JOINT newVegas:Right_Peck
				{
					OFFSET -17.239599 -5.132202 25.482599
					CHANNELS 3 Xrotation Yrotation Zrotation
					End Site
					{
						OFFSET 0.000000 22.523010 0.000000
					}
				}
				JOINT newVegas:Right_Collar
				{
					OFFSET -18.625099 8.655792 8.828100
					CHANNELS 3 Xrotation Yrotation Zrotation
					JOINT newVegas:Right_Collar1
					{
						OFFSET -14.783401 10.539993 -1.259500
						CHANNELS 3 Xrotation Yrotation Zrotation
						End Site
						{
							OFFSET 0.000000 18.199631 0.000000
						}
					}
				}
			}
		}
		JOINT newVegas:Belly
		{
			OFFSET 0.000000 -6.540398 9.014299
			CHANNELS 3 Xrotation Yrotation Zrotation
			End Site
			{
				OFFSET 0.000000 11.566666 0.000000
			}
		}
	}
	JOINT newVegas:ElvisFacialAnim_Joint
	{
		OFFSET 1.000000 -95.330101 -8.825800
		CHANNELS 3 Xrotation Yrotation Zrotation
		End Site
		{
			OFFSET 0.000000 35.315800 0.000000
		}
	}
}
MOTION
Frames: 4
Frame Time: 0.033333
-0.466540 184.278564 0.891945 74.016690 -0.124338 3.988124 0.000001 -0.000000 0.000000 -101.320310 20.833684 27.611134 107.229332 -0.714149 -5.471497 -1.665471 29.094454 12.604878 0.000002 -0.000000 0.000001 -0.000000 0.000000 -0.000001 -55.476835 4.339097 -33.573214 84.657599 3.189162 3.799855 -8.893128 23.308657 14.538946 0.000000 0.000000 -0.000001 -0.000000 0.000003 -0.000002 5.125593 0.515754 0.470282 10.255868 0.628481 0.207337 10.255859 0.628480 0.207336 0.525136 0.040724 -0.503635 0.525133 0.040724 -0.503633 0.000000 0.000000 -0.000000 0.525180 0.040725 -0.503635 0.525130 0.040723 -0.503633 0.000000 -0.000000 -0.000000 0.000000 0.000000 -0.000000 5.318523 -0.788828 -8.527302 -79.455871 -71.163297 -45.697002 0.270193 -61.887463 0.282343 -18.560332 7.424144 50.350372 -7.211448 -13.249729 -2.675389 -0.967742 0.158676 1.813304 -0.000000 -0.000000 -0.000008 -0.008626 -1.197482 16.901909 0.102199 0.837991 -21.777484 -0.000001 0.000001 -0.000001 -0.045588 2.003079 4.680157 -0.304653 -1.143726 -20.530917 -0.000003 -0.000000 -0.000000 -3.427013 5.380465 3.226384 -1.254932 -3.794004 -42.109749 -0.000002 0.000001 0.000001 -2.557335 3.238500 -8.472629 -2.556832 -8.102219 -51.678280 0.000001 -0.000005 0.000002 -0.000002 -0.000002 0.000001 -0.000002 -0.000002 0.000001 -0.000002 -0.000002 0.000001 0.000001 0.000001 0.000001 0.000001 0.000001 0.000000 0.000001 0.000001 0.000001 0.000002 0.000001 0.000001 -0.231115 -5.221669 -8.774636 -25.149270 22.247164 38.574265 0.320618 77.277040 -0.385108 34.741928 -12.798247 -72.314416 -26.160277 -7.355897 -16.625855 -1.990901 -0.563470 -2.334736 -0.000000 -0.000002 -0.000001 -1.249327 1.213562 -7.713258 0.039205 -0.820182 8.672578 0.000000 0.000000 -0.000001 -1.172899 -1.873141 -4.120638 -0.010478 -0.354677 2.346558 -0.000000 -0.000000 -0.000000 1.585052 -9.261146 -0.571347 -0.008671 0.884524 3.704161 0.000000 0.000001 -0.000001 3.721423 -10.788544 -5.851033 -0.237093 5.138791 12.950683 -0.000001 0.000005 -0.000001 0.000003 -0.000001 -0.000001 -0.000000 -0.000001 -0.000001 0.000003 -0.000001 -0.000001 -0.000000 -0.000004 -0.000002 -0.000000 -0.000003 -0.000004 -0.000000 -0.000004 -0.000002 -0.000000 -0.000003 -0.000003 0.000000 0.000000 0.000000 0.000000 0.000000 0.000000 0.000000 0.000000 0.000000 0.000000 0.000000 0.000000 0.000000 0.000000 0.000000 0.000000 0.000000 0.000000 0.000000 0.000000 0.000000 -0.000000 -0.000000 0.000000 0.000001 -0.000000 0.000000 
-0.379632 184.040314 0.705078 74.011062 -0.073570 3.741503 0.000002 0.000000 -0.000000 -102.130705 19.248252 25.219872 107.153825 -0.377347 -5.428793 0.622346 33.884002 11.902890 0.000001 -0.000002 0.000000 0.000001 0.000001 0.000000 -54.987380 3.045874 -35.088663 84.857690 3.473840 3.842552 -11.500679 25.365803 16.430058 -0.000000 -0.000000 0.000001 0.000000 -0.000001 0.000000 5.100463 0.603818 0.489798 10.206767 0.748717 0.199584 10.206766 0.748716 0.199583 0.489934 0.029520 -0.533423 0.489962 0.029520 -0.533421 -0.000000 0.000000 0.000000 0.489926 0.029519 -0.533423 0.489984 0.029521 -0.533423 0.000001 0.000000 0.000000 -0.000000 0.000000 0.000000 5.375195 -1.297629 -8.477462 -83.654832 -70.410125 -50.569860 0.264478 -61.528557 0.274825 -16.676421 8.002847 49.313358 -7.271445 -13.061484 -2.459627 -1.030936 0.175125 1.891892 0.000001 -0.000001 -0.000001 0.071767 -1.346970 16.913608 0.102192 0.837992 -21.777483 0.000000 0.000000 -0.000003 -0.032708 1.970390 4.708807 -0.304665 -1.143721 -20.530920 -0.000004 0.000000 -0.000001 -3.432189 5.341758 3.280110 -1.254949 -3.794002 -42.109749 -0.000001 0.000003 -0.000001 -2.535985 3.194519 -8.432315 -2.556847 -8.102222 -51.678287 -0.000001 -0.000002 -0.000002 0.000001 -0.000001 0.000003 0.000001 -0.000001 0.000003 0.000001 -0.000001 0.000003 -0.000001 0.000001 -0.000000 -0.000001 0.000000 -0.000000 -0.000001 0.000001 -0.000000 -0.000001 -0.000000 0.000000 -0.101165 -4.119348 -8.394753 -26.510322 18.126332 43.001491 0.593027 83.357022 -0.643183 38.071754 -15.166269 -67.932051 -25.135351 -9.331342 -15.408739 -1.746389 -0.491259 -2.076528 0.000002 0.000001 0.000001 -1.149162 1.366339 -7.823782 0.177210 -0.841351 13.327530 -0.000000 0.000000 -0.000000 -1.083576 -1.725807 -4.241976 0.079611 0.070250 6.981527 0.000001 0.000000 0.000001 1.665709 -9.114878 -0.689809 0.048778 1.522206 8.313795 -0.000000 0.000001 0.000001 3.815180 -10.653468 -5.974699 -0.364272 6.058889 17.524595 -0.000000 0.000003 0.000001 -0.000000 0.000001 -0.000000 0.000003 0.000001 -0.000000 -0.000000 0.000001 0.000001 -0.000000 0.000002 -0.000000 -0.000000 0.000003 -0.000002 -0.000000 0.000002 -0.000000 -0.000000 0.000003 -0.000001 -0.000000 0.000000 0.000001 -0.000000 0.000000 0.000001 -0.000000 0.000000 0.000001 -0.000000 0.000000 0.000001 -0.000000 0.000000 0.000001 -0.000000 0.000000 0.000001 -0.000000 0.000000 0.000001 0.000000 0.000000 -0.000001 0.000002 0.000000 -0.000000 
-0.198968 183.726196 0.420982 74.014341 0.161725 3.497514 -0.000000 0.000000 0.000000 -102.910658 17.866079 23.166339 107.474686 -0.149132 -5.399116 2.475025 37.441970 11.227805 -0.000000 -0.000003 0.000002 0.000001 0.000000 -0.000000 -53.751219 2.247226 -36.359347 84.625538 3.805351 3.892159 -15.067437 27.587286 20.214819 0.000000 0.000000 0.000001 0.000001 -0.000002 -0.000000 5.053622 0.664895 0.462469 10.113483 0.876970 0.191307 10.113465 0.876969 0.191306 0.423700 0.010494 -0.571572 0.423664 0.010493 -0.571573 0.000000 -0.000000 -0.000000 0.423664 0.010497 -0.571573 0.423792 0.010490 -0.571572 0.000000 -0.000000 -0.000000 0.000000 -0.000000 -0.000000 5.421463 -1.676613 -8.316694 -87.082754 -70.589985 -54.378483 0.259392 -61.008220 0.268596 -15.842808 8.539248 48.940208 -7.426867 -12.577837 -1.901204 -1.193176 0.216868 2.095486 -0.000002 -0.000000 -0.000003 0.279391 -1.732272 16.942670 0.102196 0.837997 -21.777490 -0.000002 -0.000000 -0.000001 0.003437 1.878837 4.791268 -0.304669 -1.143708 -20.530944 -0.000001 -0.000001 0.000000 -3.443271 5.233478 3.427308 -1.254943 -3.793987 -42.109749 -0.000002 0.000001 -0.000001 -2.475932 3.071461 -8.319170 -2.556857 -8.102206 -51.678280 0.000001 -0.000005 -0.000001 -0.000002 -0.000005 0.000003 -0.000002 -0.000005 0.000003 -0.000002 -0.000005 0.000003 0.000000 0.000000 0.000002 0.000001 0.000000 0.000002 0.000000 0.000000 0.000002 -0.000001 -0.000000 0.000002 0.033745 -3.116576 -7.642990 -28.895901 12.427177 49.686638 3.616545 89.063140 -3.651472 45.539351 -16.793576 -61.315469 -24.072812 -11.562546 -14.030354 -1.505553 -0.424610 -1.795445 0.000002 -0.000000 -0.000000 -1.041330 1.529497 -7.897235 0.312999 -0.839203 18.213413 -0.000000 -0.000001 0.000001 -0.987020 -1.563963 -4.327143 0.127972 0.535878 11.844586 0.000000 0.000000 0.000000 1.752717 -8.952049 -0.772035 0.044478 2.207121 13.151491 0.000000 -0.000001 -0.000002 3.917173 -10.498493 -6.063075 -0.588292 7.021581 22.334994 -0.000000 0.000002 -0.000000 -0.000001 0.000000 0.000000 -0.000001 0.000001 -0.000001 -0.000001 -0.000000 0.000001 -0.000001 0.000004 -0.000001 -0.000001 0.000005 -0.000001 -0.000001 0.000004 -0.000001 -0.000001 0.000005 0.000001 0.000000 0.000000 -0.000000 0.000000 0.000000 -0.000000 0.000000 0.000000 -0.000000 0.000000 0.000000 -0.000000 0.000000 0.000000 -0.000000 0.000000 0.000000 -0.000000 0.000000 0.000000 -0.000000 -0.000000 -0.000000 0.000000 -0.000000 0.000000 0.000000 
0.057286 183.431641 0.131271 74.168239 0.465530 3.303373 0.000000 -0.000000 0.000000 -103.431515 16.780680 21.703643 108.172178 -0.392591 -5.432316 3.716808 37.621440 9.943034 -0.000001 0.000002 -0.000000 -0.000000 -0.000001 -0.000000 -52.729771 1.478669 -37.266738 84.251169 4.008887 3.925919 -18.125280 28.802751 23.977340 0.000000 0.000000 -0.000001 0.000001 0.000003 -0.000001 4.962712 0.698237 0.406471 9.930832 1.012982 0.204431 9.930847 1.012982 0.204432 0.324916 -0.015584 -0.597508 0.324932 -0.015585 -0.597506 0.000001 0.000000 0.000000 0.324918 -0.015586 -0.597507 0.324962 -0.015582 -0.597508 -0.000001 -0.000000 -0.000000 0.000001 0.000000 0.000000 5.468377 -1.663976 -8.660329 -91.467824 -71.786217 -58.993915 0.249999 -60.074546 0.259577 -15.677579 8.833330 48.852276 -7.640851 -11.920825 -1.132760 -1.413489 0.272281 2.375677 -0.000003 0.000002 -0.000001 0.563905 -2.258816 16.980376 0.102197 0.837986 -21.777481 -0.000003 -0.000001 0.000002 0.059288 1.738195 4.922326 -0.304672 -1.143730 -20.530922 -0.000003 -0.000000 -0.000001 -3.453184 5.067235 3.646846 -1.254943 -3.794011 -42.109762 -0.000002 -0.000005 -0.000004 -2.382763 2.882496 -8.144761 -2.556830 -8.102209 -51.678280 0.000000 -0.000003 -0.000001 0.000000 0.000002 0.000002 0.000000 0.000002 0.000002 0.000000 0.000002 0.000002 -0.000000 0.000000 -0.000000 0.000000 0.000000 -0.000001 -0.000000 0.000000 -0.000000 0.000000 0.000000 -0.000000 0.193425 -1.932886 -6.391651 -29.955782 7.089186 56.842603 -0.579388 94.504225 0.559509 55.343681 -16.529188 -54.569981 -23.084405 -13.316796 -12.850904 -1.293342 -0.369497 -1.524742 0.000001 -0.000001 0.000001 -0.947028 1.670763 -8.046360 0.417432 -0.829829 22.637731 -0.000000 0.000001 -0.000003 -0.903083 -1.432274 -4.485936 0.119424 0.959200 16.248416 -0.000000 -0.000000 0.000002 1.828818 -8.823340 -0.927692 -0.027452 2.824145 17.534848 0.000001 0.000000 0.000004 4.004438 -10.384477 -6.222805 -0.879151 7.870693 26.704925 0.000001 -0.000002 -0.000001 -0.000000 0.000000 0.000001 0.000000 0.000001 -0.000002 -0.000000 -0.000000 0.000000 -0.000001 -0.000001 -0.000001 -0.000001 0.000000 0.000001 -0.000001 -0.000001 -0.000001 -0.000000 0.000000 0.000002 0.000001 -0.000000 -0.000000 0.000001 -0.000000 -0.000000 0.000001 -0.000000 -0.000000 0.000001 -0.000000 -0.000000 0.000001 -0.000000 -0.000000 0.000001 -0.000000 -0.000000 0.000001 -0.000000 -0.000000 0.000001 0.000000 -0.000001 0.000000 -0.000000 0.000000 
